<svg width="50" height="50" viewBox="0 0 50 50" fill="none" xmlns="http://www.w3.org/2000/svg">
<path d="M49.8522 28.0079L47.1898 19.1408C47.191 19.1448 47.1914 19.1489 47.1926 19.1529C47.1913 19.1483 47.1906 19.1437 47.1894 19.139C47.1892 19.1387 47.1892 19.1385 47.1892 19.1382C47.1892 19.1381 47.1892 19.1379 47.1892 19.1379L41.904 1.54157C41.6149 0.61462 40.8194 -0.00749739 39.9074 0.000159429C38.9927 0.00526398 38.219 0.615416 37.9361 1.55513L32.9194 18.2574H17.0899L12.0637 1.55402C11.7811 0.615099 11.0073 0.00510455 10.0928 0C10.0891 0 10.0855 0 10.0817 0C9.18116 0 8.38403 0.618288 8.09182 1.55561L2.82109 19.1362L2.82035 19.1384C2.82035 19.1385 2.82035 19.1387 2.82035 19.1389C2.81902 19.1433 2.81843 19.1478 2.8171 19.1523C2.81828 19.1483 2.81873 19.1441 2.81991 19.1401L0.14781 28.0079C-0.254148 29.3465 0.182032 30.8013 1.23346 31.6284L24.306 49.7572C24.3094 49.7599 24.3132 49.7615 24.3166 49.7642C24.3265 49.7719 24.3361 49.7797 24.3461 49.7869C24.3367 49.78 24.3278 49.7725 24.3185 49.7655C24.3185 49.7655 24.3185 49.7654 24.3184 49.7654C24.3198 49.7666 24.3216 49.7674 24.3232 49.7685C24.3246 49.7695 24.3259 49.7701 24.3272 49.7711C24.3274 49.7713 24.3275 49.7714 24.3278 49.7716C24.3635 49.7984 24.4005 49.8229 24.4389 49.8454C24.4442 49.8486 24.4489 49.8526 24.4542 49.8556C24.4544 49.8556 24.4544 49.8558 24.4545 49.8558C24.4578 49.8576 24.4607 49.8598 24.464 49.8615C24.4665 49.8628 24.4691 49.8636 24.4715 49.8649C24.4732 49.8659 24.4752 49.8665 24.4769 49.8673C24.4812 49.8695 24.4859 49.871 24.4902 49.8733C24.5103 49.8837 24.5314 49.8922 24.552 49.9013C24.5713 49.9099 24.5901 49.9199 24.6098 49.9274C24.6107 49.9277 24.6115 49.9282 24.6123 49.9285C24.6156 49.9298 24.6185 49.9316 24.6219 49.9328C24.6261 49.9344 24.63 49.9362 24.6342 49.9376C24.6358 49.9381 24.6374 49.9384 24.639 49.9389C24.6442 49.9407 24.6498 49.9415 24.655 49.9431C24.6569 49.9437 24.6591 49.944 24.6612 49.9447C24.6889 49.9537 24.7177 49.9603 24.7463 49.9671C24.7575 49.9699 24.7683 49.9737 24.7796 49.9759C24.7812 49.9762 24.7827 49.9769 24.7845 49.9772C24.7882 49.978 24.7916 49.9794 24.7954 49.9801C24.8014 49.9812 24.8074 49.9833 24.8135 49.9842C24.8184 49.985 24.8234 49.9847 24.8283 49.9855C24.8292 49.9856 24.8299 49.9855 24.8308 49.9856C24.8311 49.9856 24.8312 49.9856 24.8315 49.9856C24.886 49.9941 24.9411 50 24.9973 50C24.9976 50 24.9979 50 24.9984 50C24.9985 50 24.9987 50 24.9987 50H24.9988C24.999 50 24.9991 50 24.9993 50C25.0556 50 25.1108 49.9941 25.1653 49.9856C25.1655 49.9856 25.1658 49.9856 25.1659 49.9856C25.1668 49.9855 25.1677 49.9856 25.1686 49.9855C25.1735 49.9847 25.1786 49.985 25.1835 49.9842C25.1897 49.9831 25.1956 49.9812 25.2018 49.9801C25.2055 49.9794 25.2089 49.978 25.2126 49.9772C25.2142 49.9769 25.2157 49.9762 25.2173 49.9759C25.2288 49.9735 25.2398 49.9697 25.2513 49.967C25.2795 49.9603 25.3078 49.9537 25.3354 49.9448C25.3373 49.9442 25.3393 49.944 25.3412 49.9434C25.3466 49.9416 25.3522 49.9408 25.3577 49.9391C25.3593 49.9384 25.3611 49.9383 25.3627 49.9378C25.367 49.9364 25.3711 49.9344 25.3753 49.9328C25.3785 49.9316 25.3814 49.9298 25.3847 49.9285C25.3856 49.9282 25.3863 49.9277 25.3872 49.9274C25.4081 49.9194 25.4279 49.9089 25.4484 49.8998C25.4674 49.8912 25.4869 49.8836 25.5055 49.874C25.5101 49.8716 25.5149 49.8702 25.5194 49.8678C25.5211 49.8668 25.5232 49.8662 25.525 49.8652C25.5275 49.8639 25.5301 49.8631 25.5326 49.8617C25.536 49.8598 25.5393 49.8576 25.5425 49.8558C25.5425 49.8558 25.5427 49.8558 25.5427 49.8556C25.5481 49.8526 25.553 49.8483 25.5585 49.8451C25.5965 49.8228 25.6334 49.7984 25.6689 49.7717C25.6717 49.7697 25.675 49.7681 25.6779 49.7658C25.6787 49.7652 25.6796 49.7649 25.6803 49.7642C25.6837 49.7615 25.6877 49.7598 25.6911 49.7571L48.7671 31.6279C49.818 30.8013 50.2541 29.3465 49.8522 28.0079ZM39.922 3.19002L44.4475 18.2574H35.3965L39.922 3.19002ZM43.655 20.8052L41.8083 23.364L28.1884 42.236L34.631 20.8052H43.655ZM23.8782 49.1203C23.8794 49.1241 23.8813 49.1276 23.8825 49.1316C23.8813 49.1276 23.8794 49.1241 23.8782 49.1203ZM21.8119 42.2373L6.35374 20.8052H15.3782L21.8119 42.2373ZM10.0784 3.18986L14.6124 18.2574H5.56133L10.0784 3.18986ZM2.61885 29.5676C2.39523 29.3917 2.3026 29.0811 2.3883 28.7959L4.37463 22.2038L18.9292 42.3831L2.61885 29.5676ZM24.2654 49.7236C24.2608 49.7196 24.2564 49.7153 24.252 49.7111C24.2511 49.7103 24.2502 49.7092 24.2492 49.7084C24.2403 49.7004 24.2316 49.6923 24.2231 49.684C24.2063 49.6682 24.1897 49.6521 24.174 49.6352C24.1753 49.6365 24.1768 49.6376 24.1781 49.6389C24.1799 49.6406 24.1818 49.6421 24.1835 49.6438C24.2173 49.6787 24.2529 49.7116 24.29 49.7419C24.2905 49.7422 24.2908 49.7427 24.2912 49.743C24.293 49.7445 24.2945 49.7462 24.2962 49.7478C24.2861 49.7398 24.2754 49.7322 24.2654 49.7236ZM24.9993 44.6035L21.2135 31.9923L17.8553 20.8052H32.1537L24.9993 44.6035ZM25.7741 49.684C25.7653 49.6923 25.7567 49.7006 25.7477 49.7086C25.7467 49.7095 25.7456 49.7106 25.7446 49.7116C25.74 49.7156 25.7358 49.7199 25.7313 49.7239C25.7216 49.7323 25.711 49.74 25.7008 49.7481C25.7026 49.7467 25.704 49.7448 25.706 49.7435C25.7063 49.7432 25.7066 49.7429 25.7069 49.7425C25.744 49.7122 25.7794 49.6797 25.8129 49.6448C25.8142 49.6433 25.8159 49.6422 25.8172 49.6409C25.819 49.6392 25.8209 49.6377 25.8225 49.636C25.8069 49.6524 25.7905 49.6684 25.7741 49.684ZM47.3817 29.5671L31.0738 42.3791L45.6332 22.2054L47.6115 28.7946C47.6974 29.0811 47.6049 29.3917 47.3817 29.5671Z" fill="black"/>
</svg>
