<svg width="50" height="50" viewBox="0 0 50 50" fill="none" xmlns="http://www.w3.org/2000/svg">
<path d="M43.75 0H6.25C2.8 0 0 2.8 0 6.25V43.75C0 47.2 2.8 50 6.25 50H43.75C47.2 50 50 47.2 50 43.75V6.25C50 2.79687 47.2 0 43.75 0ZM21.875 37.5C21.875 39.225 20.475 40.625 18.75 40.625H9.375C7.65 40.625 6.25 39.225 6.25 37.5V9.375C6.25 7.64688 7.65 6.25 9.375 6.25H18.75C20.475 6.25 21.875 7.64688 21.875 9.375V37.5ZM43.75 25C43.75 26.725 42.35 28.125 40.625 28.125H31.25C29.525 28.125 28.125 26.725 28.125 25V9.375C28.125 7.64688 29.525 6.25 31.25 6.25H40.625C42.35 6.25 43.75 7.64688 43.75 9.375V25Z" fill="black"/>
</svg>
