<svg width="60" height="50" viewBox="0 0 60 50" fill="none" xmlns="http://www.w3.org/2000/svg">
<path d="M52.2124 24.1092C52.247 23.6777 52.2796 23.2519 52.2796 22.8147C52.2796 13.5274 44.5977 6 35.1242 6C28.2054 6 22.2556 10.0266 19.545 15.8092C18.1167 14.8181 16.3731 14.2265 14.4853 14.2265C9.64468 14.2265 5.72298 18.0722 5.72298 22.8166C5.72298 23.527 5.82102 24.2147 5.98635 24.8761C2.4203 26.7848 0 30.4891 0 34.7531C0 40.9654 5.13665 46 11.4729 46C17.8091 46 43.8711 46 48.5271 46C54.8633 46 60 40.9654 60 34.7531C60.0038 29.8052 56.7415 25.6147 52.2124 24.1092ZM51.5434 33.6961C51.1512 37.7622 48.2657 42.1147 41.3489 42.1147C36.118 42.1147 31.1429 36.6694 28.9725 33.649C28.9667 33.6396 24.9181 27.5121 20.437 27.6704C16.054 27.8249 14.8986 30.084 14.7006 32.1096C14.5045 34.1332 15.6849 36.2172 17.5707 37.1725C19.9391 38.3633 22.89 37.6322 25.8793 35.0923L28.811 38.4179C25.9236 40.8674 22.8439 42.1261 19.9237 42.1279C18.3935 42.1279 16.9075 41.7812 15.5157 41.0784C11.99 39.296 9.86767 35.5275 10.2387 31.6988C10.6309 27.6289 13.5183 23.2764 20.4351 23.2764C26.6079 23.2764 30.9449 28.782 32.3578 30.7039C34.6974 33.8939 38.7786 37.7226 41.347 37.7226C45.7339 37.7226 46.8854 35.3052 47.0834 33.2815C47.2795 31.2598 46.0991 29.174 44.2133 28.2205C41.8468 27.0297 38.8959 27.7627 35.9066 30.3007L32.9749 26.977C37.3791 23.2443 42.2236 22.274 46.2702 24.3183C49.7959 26.0989 51.9163 29.8674 51.5434 33.6961Z" fill="#9400FF"/>
</svg>
