<svg width="50" height="50" viewBox="0 0 50 50" fill="none" xmlns="http://www.w3.org/2000/svg">
<g clip-path="url(#clip0)">
<path d="M48.9698 12.9975C48.3934 10.8555 46.7047 9.16717 44.5631 8.59039C40.6504 7.51961 24.9995 7.51961 24.9995 7.51961C24.9995 7.51961 9.34902 7.51961 5.4363 8.54957C3.33594 9.12597 1.60598 10.8559 1.02958 12.9975C0 16.9098 0 25.0237 0 25.0237C0 25.0237 0 33.1783 1.02958 37.0498C1.60636 39.1914 3.29474 40.8802 5.43668 41.4569C9.39022 42.5277 24.9999 42.5277 24.9999 42.5277C24.9999 42.5277 40.6504 42.5277 44.5631 41.4978C46.705 40.9214 48.3934 39.2326 48.9702 37.091C49.9998 33.1783 49.9998 25.0649 49.9998 25.0649C49.9998 25.0649 50.041 16.9098 48.9698 12.9975Z" fill="#9400FF"/>
<path d="M20.0164 32.5196L33.031 25.0237L20.0164 17.5278V32.5196Z" fill="#282828"/>
</g>
<defs>
<clipPath id="clip0">
<rect width="50" height="50" fill="white"/>
</clipPath>
</defs>
</svg>
