<svg width="50" height="50" viewBox="0 0 50 50" fill="none" xmlns="http://www.w3.org/2000/svg">
<path d="M28.2823 10.3118H5.47046C2.46171 10.3118 0 12.7735 0 15.7823V34.2177C0 37.2265 2.46171 39.6882 5.47046 39.6882H28.2823C31.291 39.6882 33.7527 37.2265 33.7527 34.2177V15.7823C33.7527 12.7188 31.291 10.3118 28.2823 10.3118Z" fill="#9400FF"/>
<path d="M45.9519 13.3206C45.6236 13.3753 45.2954 13.5394 45.0219 13.7035L36.488 18.6269V31.3184L45.0766 36.2418C46.663 37.1718 48.6324 36.6247 49.5624 35.0383C49.8359 34.546 50 33.9989 50 33.3972V16.4934C50 14.4694 48.0853 12.8282 45.9519 13.3206Z" fill="#9400FF"/>
</svg>
